<svg width="20" height="20" viewBox="0 0 20 20" fill="none" xmlns="http://www.w3.org/2000/svg">
<g id="icon/visibility">
<path id="Vector" d="M10 4.16506C8.47004 4.16506 7.20337 4.48922 6.15254 4.97422L3.0892 1.91089L1.91087 3.08922L4.67337 5.85256C2.49587 7.47922 1.72087 9.70089 1.7092 9.73589L1.6217 9.99922L1.7092 10.2626C1.72754 10.3184 3.6392 15.8334 10 15.8334C11.5292 15.8334 12.795 15.5092 13.8459 15.0242L16.9109 18.0892L18.0892 16.9109L15.325 14.1467C17.5034 12.5201 18.2792 10.2984 18.2909 10.2634L18.3784 10.0001L18.2909 9.73672C18.2725 9.68006 16.3609 4.16506 10 4.16506ZM3.39504 10.0001C3.48087 9.80339 3.62337 9.51172 3.8292 9.17589L8.71837 14.0651C5.20754 13.5251 3.7692 10.8626 3.39504 10.0001ZM11.1009 14.0892L4.86754 7.85506C5.1709 7.55157 5.50239 7.27756 5.85754 7.03672L12.57 13.7484C12.0933 13.912 11.601 14.0262 11.1009 14.0892ZM14.1409 12.9626L12.8567 11.6784C13.1517 11.1817 13.3334 10.6117 13.3334 9.99922C13.3334 9.60422 13.2509 9.22922 13.1209 8.87506C13.0446 8.96566 12.9496 9.03865 12.8425 9.089C12.7353 9.13935 12.6185 9.16587 12.5 9.16672C12.279 9.16672 12.0671 9.07892 11.9108 8.92264C11.7545 8.76636 11.6667 8.5544 11.6667 8.33339C11.6667 7.96756 11.9067 7.66506 12.235 7.55339C11.6277 6.98768 10.83 6.6709 10 6.66589C9.38754 6.66589 8.81754 6.84756 8.32087 7.14256L7.4292 6.25089C8.25633 5.967 9.12557 5.82527 10 5.83172C14.4592 5.83172 16.1875 9.03756 16.605 9.99839C16.0708 11.1936 15.2183 12.2189 14.1409 12.9626Z" fill="#52525B"/>
</g>
</svg>
