<svg width="20" height="20" viewBox="0 0 20 20" fill="none" xmlns="http://www.w3.org/2000/svg">
<g id="icon/calendar">
<path id="Vector" d="M5.8335 9.16675H7.50016V10.8334H5.8335V9.16675ZM5.8335 12.5001H7.50016V14.1667H5.8335V12.5001ZM9.16683 9.16675H10.8335V10.8334H9.16683V9.16675ZM9.16683 12.5001H10.8335V14.1667H9.16683V12.5001ZM12.5002 9.16675H14.1668V10.8334H12.5002V9.16675ZM12.5002 12.5001H14.1668V14.1667H12.5002V12.5001Z" fill="#52525B"/>
<path id="Vector_2" d="M4.16667 18.3334H15.8333C16.7525 18.3334 17.5 17.5859 17.5 16.6667V5.00008C17.5 4.08091 16.7525 3.33341 15.8333 3.33341H14.1667V1.66675H12.5V3.33341H7.5V1.66675H5.83333V3.33341H4.16667C3.2475 3.33341 2.5 4.08091 2.5 5.00008V16.6667C2.5 17.5859 3.2475 18.3334 4.16667 18.3334ZM15.8333 6.66675L15.8342 16.6667H4.16667V6.66675H15.8333Z" fill="#52525B"/>
</g>
</svg>
