<svg width="20" height="20" viewBox="0 0 20 20" fill="none" xmlns="http://www.w3.org/2000/svg">
<g id="icon/file">
<path id="Vector" d="M16.586 7.15508C16.5465 7.06464 16.4912 6.98196 16.4227 6.91091L11.4227 1.91091C11.3516 1.8424 11.2689 1.78709 11.1785 1.74758C11.1535 1.73591 11.1268 1.72925 11.1002 1.72008C11.0304 1.69635 10.9578 1.68206 10.8843 1.67758C10.8668 1.67591 10.851 1.66675 10.8335 1.66675H5.00016C4.081 1.66675 3.3335 2.41425 3.3335 3.33341V16.6667C3.3335 17.5859 4.081 18.3334 5.00016 18.3334H15.0002C15.9193 18.3334 16.6668 17.5859 16.6668 16.6667V7.50008C16.6668 7.48258 16.6577 7.46675 16.656 7.44841C16.6519 7.37485 16.6376 7.3022 16.6135 7.23258C16.6052 7.20591 16.5977 7.18008 16.586 7.15508ZM13.8218 6.66675H11.6668V4.51175L13.8218 6.66675ZM5.00016 16.6667V3.33341H10.0002V7.50008C10.0002 7.7211 10.088 7.93306 10.2442 8.08934C10.4005 8.24562 10.6125 8.33341 10.8335 8.33341H15.0002L15.0018 16.6667H5.00016Z" fill="black"/>
<path id="Vector_2" d="M6.6665 10.0001H13.3332V11.6667H6.6665V10.0001ZM6.6665 13.3334H13.3332V15.0001H6.6665V13.3334ZM6.6665 6.66675H8.33317V8.33341H6.6665V6.66675Z" fill="black"/>
</g>
</svg>
