<svg width="20" height="20" viewBox="0 0 20 20" fill="none" xmlns="http://www.w3.org/2000/svg">
<g id="icon/register">
<path id="Vector" d="M2.5 13.3334C2.5 14.2526 3.2475 15.0001 4.16667 15.0001H7.155L10 17.8451L12.845 15.0001H15.8333C16.7525 15.0001 17.5 14.2526 17.5 13.3334V3.33341C17.5 2.41425 16.7525 1.66675 15.8333 1.66675H4.16667C3.2475 1.66675 2.5 2.41425 2.5 3.33341V13.3334ZM4.16667 3.33341H15.8333V13.3334H12.155L10 15.4884L7.845 13.3334H4.16667V3.33341Z" fill="black"/>
<path id="Vector_2" d="M9.1665 11.6667H10.8332V9.16667H13.3332V7.5H10.8332V5H9.1665V7.5H6.6665V9.16667H9.1665V11.6667Z" fill="black"/>
</g>
</svg>
