<svg width="21" height="20" viewBox="0 0 21 20" fill="none" xmlns="http://www.w3.org/2000/svg">
<path d="M10.2615 1.67578C10.3891 1.28287 10.9444 1.28287 11.072 1.67578L12.6082 6.40137C12.8661 7.19512 13.6056 7.73242 14.4402 7.73242H19.4099C19.8229 7.73262 19.9941 8.26112 19.6599 8.50391L15.6404 11.4248C14.9652 11.9154 14.6823 12.7854 14.9402 13.5791L16.4753 18.3057C16.6029 18.6985 16.1533 19.025 15.8191 18.7822L11.7996 15.8613C11.1244 15.3708 10.2091 15.3708 9.53394 15.8613L5.5144 18.7822C5.1802 19.025 4.73062 18.6985 4.85815 18.3057L6.39331 13.5791C6.65121 12.7854 6.36832 11.9154 5.69312 11.4248L1.67358 8.50391C1.33941 8.26112 1.51062 7.73262 1.92358 7.73242H6.89331C7.72791 7.73242 8.46744 7.19512 8.72534 6.40137L10.2615 1.67578Z" stroke="black" stroke-width="1.5"/>
</svg>
